<?xml version="1.0" encoding="UTF-8"?>
<svg width="44px" height="44px" viewBox="0 0 44 44" version="1.1" xmlns="http://www.w3.org/2000/svg" xmlns:xlink="http://www.w3.org/1999/xlink">
    <!-- Generator: Sketch 42 (36781) - http://www.bohemiancoding.com/sketch -->
    <title>登录</title>
    <desc>Created with Sketch.</desc>
    <defs>
        <rect id="path-1" x="7" y="19" width="30" height="20" rx="4"></rect>
        <mask id="mask-2" maskContentUnits="userSpaceOnUse" maskUnits="objectBoundingBox" x="0" y="0" width="30" height="20" fill="white">
            <use xlink:href="#path-1"></use>
        </mask>
        <path d="M34,19 L34,16 L34,16 C34,10.4771525 28.627417,6 22,6 C15.372583,6 10,10.4771525 10,16 L10,19" id="path-3"></path>
        <mask id="mask-4" maskContentUnits="userSpaceOnUse" maskUnits="objectBoundingBox" x="0" y="0" width="24" height="13" fill="white">
            <use xlink:href="#path-3"></use>
        </mask>
    </defs>
    <g id="登录及个人中心" stroke="none" stroke-width="1" fill="none" fill-rule="evenodd">
        <g id="登录">
            <g id="密码">
                <use id="Rectangle-3" stroke="#B2B2B2" mask="url(#mask-2)" stroke-width="4" xlink:href="#path-1"></use>
                <path d="M21.0328108,29.7510046 C20.4169618,29.4101061 20,28.7537464 20,28 C20,26.8954305 20.8954305,26 22,26 C23.1045695,26 24,26.8954305 24,28 C24,28.7535679 23.5832356,29.4097953 22.9676267,29.7507623 C22.9887535,29.8330321 23,29.9196599 23,30.0093689 L23,31.9906311 C23,32.5480902 22.5561352,33 22,33 C21.4477153,33 21,32.5566468 21,31.9906311 L21,30.0093689 C21,29.920064 21.0113914,29.8334678 21.0328108,29.7510046 Z" id="Combined-Shape" fill="#B2B2B2"></path>
                <use id="Oval-2" stroke="#B2B2B2" mask="url(#mask-4)" stroke-width="4" xlink:href="#path-3"></use>
            </g>
        </g>
    </g>
</svg>